<svg xmlns="http://www.w3.org/2000/svg" xmlns:xlink="http://www.w3.org/1999/xlink" width="500" zoomAndPan="magnify" viewBox="0 0 375 374.999991" height="500" preserveAspectRatio="xMidYMid meet" version="1.0"><defs><clipPath id="790cc4abe4"><path d="M 104 22 L 337.222656 22 L 337.222656 347 L 104 347 Z M 104 22 " clip-rule="nonzero"/></clipPath></defs><g clip-path="url(#790cc4abe4)"><path fill="#3a88d6" d="M 155.578125 190.425781 C 155.578125 202.914062 155.792969 214.117188 155.535156 225.320312 C 155.015625 247.289062 162.210938 266.003906 179.382812 279.953125 C 199.121094 296 221.519531 299.289062 244.960938 289.785156 C 268 280.449219 281.355469 262.792969 284.519531 237.964844 C 285.375 231.300781 285.453125 224.5 285.464844 217.765625 C 285.542969 161.476562 285.488281 105.1875 285.554688 48.898438 C 285.566406 36.667969 292.964844 27.050781 304.359375 23.878906 C 320.5625 19.351562 337.046875 30.679688 337.105469 47.636719 C 337.296875 111.054688 337.5 174.46875 336.507812 237.875 C 335.886719 277.667969 315.574219 307.203125 282.785156 328.203125 C 209.71875 374.980469 113.09375 327.898438 104.359375 241.589844 C 103.863281 236.703125 104.863281 232.910156 108.761719 229.632812 C 122.949219 217.652344 136.976562 205.480469 151.085938 193.410156 C 152.054688 192.597656 153.214844 191.992188 155.578125 190.425781 Z M 155.578125 190.425781 " fill-opacity="1" fill-rule="nonzero"/></g><path fill="#3a88d6" d="M 246.15625 49.886719 C 246.15625 47.285156 245.726562 44.664062 245.277344 42.085938 C 242.125 23.808594 214.054688 17.335938 202.941406 28.132812 C 183.753906 46.792969 163 63.851562 142.621094 81.246094 C 100.980469 116.808594 59.171875 152.1875 17.328125 187.519531 C 17.203125 187.621094 17.113281 187.722656 17 187.824219 L 17 255.871094 C 76.667969 205.152344 135.175781 155.429688 194.664062 104.859375 C 194.664062 108.574219 194.664062 110.792969 194.664062 113 C 194.675781 151.070312 194.640625 189.152344 194.789062 227.222656 C 194.796875 231.277344 195.363281 235.535156 196.703125 239.328125 C 200.664062 250.53125 212.816406 257.625 223.882812 255.734375 C 237.351562 253.425781 246.132812 243.011719 246.144531 228.8125 C 246.222656 169.179688 246.199219 109.53125 246.15625 49.886719 Z M 246.15625 49.886719 " fill-opacity="1" fill-rule="nonzero"/></svg>